<svg width="140" height="20" viewBox="0 0 140 20" fill="none" xmlns="http://www.w3.org/2000/svg">
<path d="M38.2118 17.2378C37.4721 17.2378 36.7852 17.1057 36.1511 16.8415C35.5302 16.5641 35.0282 16.1612 34.6451 15.6328L34.9225 15.0185V17H32.1484V2H35.1207V8.24174L34.665 7.64729C35.0216 7.10568 35.5038 6.68956 36.1114 6.39894C36.7323 6.09511 37.4391 5.9432 38.2317 5.9432C39.262 5.9432 40.1934 6.19419 41.0256 6.69617C41.8578 7.19815 42.5183 7.87847 43.0071 8.73712C43.4959 9.58256 43.7402 10.5337 43.7402 11.5905C43.7402 12.6341 43.4959 13.5852 43.0071 14.4439C42.5315 15.3025 41.8776 15.9828 41.0454 16.4848C40.2132 16.9868 39.2686 17.2378 38.2118 17.2378ZM37.8552 14.5627C38.41 14.5627 38.8988 14.4373 39.3215 14.1863C39.7442 13.9353 40.0745 13.5852 40.3122 13.1361C40.55 12.6869 40.6689 12.1717 40.6689 11.5905C40.6689 11.0092 40.55 10.5007 40.3122 10.0647C40.0745 9.61559 39.7442 9.26552 39.3215 9.01453C38.8988 8.75033 38.41 8.61823 37.8552 8.61823C37.3268 8.61823 36.8512 8.74373 36.4285 8.99472C36.019 9.24571 35.6953 9.59577 35.4576 10.0449C35.233 10.4941 35.1207 11.0092 35.1207 11.5905C35.1207 12.1717 35.233 12.6869 35.4576 13.1361C35.6953 13.5852 36.019 13.9353 36.4285 14.1863C36.8512 14.4373 37.3268 14.5627 37.8552 14.5627Z" fill="#1C1917"/>
<path d="M49.8998 17.2378C48.7505 17.2378 47.7532 16.9868 46.9077 16.4848C46.0623 15.9696 45.4084 15.2827 44.946 14.424C44.4837 13.5654 44.2525 12.6143 44.2525 11.5707C44.2525 10.4875 44.4903 9.52312 44.9658 8.67768C45.4546 7.83223 46.1085 7.16513 46.9275 6.67635C47.7466 6.18758 48.6713 5.9432 49.7016 5.9432C50.5603 5.9432 51.3199 6.0819 51.9804 6.35931C52.6409 6.62351 53.1957 7 53.6448 7.48877C54.1072 7.97754 54.4573 8.54557 54.695 9.19287C54.9328 9.82695 55.0517 10.5205 55.0517 11.2734C55.0517 11.4848 55.0385 11.6962 55.0121 11.9075C54.9989 12.1057 54.9658 12.2774 54.913 12.4227H46.8086V10.2431H53.2287L51.8218 11.2734C51.954 10.7054 51.9473 10.2034 51.802 9.7675C51.6567 9.31836 51.3991 8.9683 51.0292 8.71731C50.6726 8.4531 50.23 8.321 49.7016 8.321C49.1864 8.321 48.7439 8.4465 48.374 8.69749C48.0041 8.94848 47.7267 9.31836 47.5418 9.80713C47.3569 10.2959 47.2842 10.8904 47.3238 11.5905C47.271 12.1982 47.3436 12.7332 47.5418 13.1955C47.7399 13.6579 48.0438 14.0211 48.4533 14.2853C48.8628 14.5363 49.3582 14.6618 49.9394 14.6618C50.4678 14.6618 50.917 14.5561 51.2868 14.3448C51.6699 14.1334 51.9672 13.8428 52.1785 13.4729L54.5563 14.6024C54.345 15.1308 54.0081 15.5931 53.5458 15.9894C53.0966 16.3857 52.5616 16.6962 51.9407 16.9207C51.3199 17.1321 50.6396 17.2378 49.8998 17.2378Z" fill="#1C1917"/>
<path d="M61.2207 17.1189C59.9129 17.1189 58.8957 16.7688 58.1692 16.0687C57.4558 15.3554 57.0992 14.3646 57.0992 13.0964V8.75694H55.2762V6.18098H55.3752C55.9301 6.18098 56.3528 6.04227 56.6434 5.76486C56.9472 5.48745 57.0992 5.07133 57.0992 4.51651V3.72391H60.0714V6.18098H62.6077V8.75694H60.0714V12.8983C60.0714 13.2682 60.1375 13.5786 60.2696 13.8296C60.4017 14.0674 60.6064 14.2457 60.8838 14.3646C61.1612 14.4835 61.5047 14.5429 61.9142 14.5429C62.0067 14.5429 62.1124 14.5363 62.2313 14.5231C62.3501 14.5099 62.2597 14.4967 62.3918 14.4835V17C62.1936 17.0264 62.185 17.0528 61.934 17.0793C61.683 17.1057 61.4453 17.1189 61.2207 17.1189Z" fill="#1C1917"/>
<path d="M68.5523 17.1189C67.2445 17.1189 66.2273 16.7688 65.5007 16.0687C64.7874 15.3554 64.4307 14.3646 64.4307 13.0964V8.75694H62.6077V6.18098H62.7068C63.2616 6.18098 63.6844 6.04227 63.975 5.76486C64.2788 5.48745 64.4307 5.07133 64.4307 4.51651V3.72391H67.403V6.18098H69.9393V8.75694H67.403V12.8983C67.403 13.2682 67.469 13.5786 67.6011 13.8296C67.7332 14.0674 67.938 14.2457 68.2154 14.3646C68.4928 14.4835 68.8363 14.5429 69.2458 14.5429C69.3383 14.5429 69.4439 14.5363 69.5628 14.5231C69.6817 14.5099 69.8072 14.4967 69.9393 14.4835V17C69.7412 17.0264 69.5166 17.0528 69.2656 17.0793C69.0146 17.1057 68.7768 17.1189 68.5523 17.1189Z" fill="#1C1917"/>
<path d="M76.0998 17.2378C74.9505 17.2378 73.9532 16.9868 73.1077 16.4848C72.2623 15.9696 71.6084 15.2827 71.146 14.424C70.6837 13.5654 70.4525 12.6143 70.4525 11.5707C70.4525 10.4875 70.6903 9.52312 71.1658 8.67768C71.6546 7.83223 72.3085 7.16513 73.1275 6.67635C73.9465 6.18758 74.8713 5.9432 75.9016 5.9432C76.7603 5.9432 77.5199 6.0819 78.1804 6.35931C78.8409 6.62351 79.3957 7 79.8448 7.48877C80.3072 7.97754 80.6573 8.54557 80.895 9.19287C81.1328 9.82695 81.2517 10.5205 81.2517 11.2734C81.2517 11.4848 81.2385 11.6962 81.2121 11.9075C81.1989 12.1057 81.1658 12.2774 81.113 12.4227H73.0086V10.2431H79.4287L78.0218 11.2734C78.1539 10.7054 78.1473 10.2034 78.002 9.7675C77.8567 9.31836 77.5991 8.9683 77.2292 8.71731C76.8726 8.4531 76.43 8.321 75.9016 8.321C75.3864 8.321 74.9439 8.4465 74.574 8.69749C74.2041 8.94848 73.9267 9.31836 73.7418 9.80713C73.5569 10.2959 73.4842 10.8904 73.5238 11.5905C73.471 12.1982 73.5436 12.7332 73.7418 13.1955C73.9399 13.6579 74.2438 14.0211 74.6533 14.2853C75.0628 14.5363 75.5582 14.6618 76.1394 14.6618C76.6678 14.6618 77.117 14.5561 77.4868 14.3448C77.8699 14.1334 78.1672 13.8428 78.3785 13.4729L80.7563 14.6024C80.545 15.1308 80.2081 15.5931 79.7458 15.9894C79.2966 16.3857 78.7616 16.6962 78.1407 16.9207C77.5199 17.1321 76.8396 17.2378 76.0998 17.2378Z" fill="#1C1917"/>
<path d="M82.2093 17V6.18098H84.9834V8.77675L84.7853 8.40026C85.0231 7.48877 85.4128 6.8745 85.9544 6.55746C86.5092 6.22721 87.1631 6.06209 87.9161 6.06209H88.5501V8.63804H87.6188C86.8923 8.63804 86.3044 8.86262 85.8553 9.31176C85.4062 9.74769 85.1816 10.3686 85.1816 11.1744V17H82.2093Z" fill="#1C1917"/>
<path d="M97.2439 20V15.0185L97.7194 15.6328C97.3495 16.1612 96.8476 16.5641 96.2135 16.8415C95.5794 17.1057 94.8925 17.2378 94.1527 17.2378C93.0959 17.2378 92.1514 16.9868 91.3191 16.4848C90.4869 15.9828 89.8264 15.3025 89.3376 14.4439C88.8621 13.5852 88.6243 12.6341 88.6243 11.5905C88.6243 10.5337 88.8687 9.58256 89.3575 8.73712C89.8462 7.87847 90.5067 7.19815 91.339 6.69617C92.1712 6.19419 93.1025 5.9432 94.1329 5.9432C94.9255 5.9432 95.6256 6.09511 96.2333 6.39894C96.8542 6.68956 97.3429 7.10568 97.6996 7.64729L97.442 8.24174V6.18098H100.216V20H97.2439ZM94.5094 14.5627C95.051 14.5627 95.5265 14.4373 95.9361 14.1863C96.3456 13.9353 96.6626 13.5852 96.8872 13.1361C97.125 12.6869 97.2439 12.1717 97.2439 11.5905C97.2439 11.0092 97.125 10.4941 96.8872 10.0449C96.6626 9.59577 96.3456 9.24571 95.9361 8.99472C95.5265 8.74373 95.051 8.61823 94.5094 8.61823C93.9678 8.61823 93.479 8.75033 93.0431 9.01453C92.6203 9.26552 92.2901 9.61559 92.0523 10.0647C91.8145 10.5007 91.6956 11.0092 91.6956 11.5905C91.6956 12.1717 91.8145 12.6869 92.0523 13.1361C92.2901 13.5852 92.6203 13.9353 93.0431 14.1863C93.479 14.4373 93.9678 14.5627 94.5094 14.5627Z" fill="#1C1917"/>
<path d="M105.484 17.2378C104.612 17.2378 103.866 17.0528 103.245 16.683C102.637 16.2999 102.175 15.7715 101.858 15.0978C101.541 14.424 101.382 13.638 101.382 12.7398V6.18098H104.355V12.502C104.355 12.9115 104.434 13.2748 104.592 13.5918C104.764 13.8956 105.002 14.1334 105.306 14.3052C105.609 14.4769 105.953 14.5627 106.336 14.5627C106.732 14.5627 107.076 14.4769 107.366 14.3052C107.67 14.1334 107.901 13.8956 108.06 13.5918C108.232 13.2748 108.318 12.9115 108.318 12.502V6.18098H111.29V17H108.516V14.86L108.674 15.3355C108.423 15.9828 108.014 16.465 107.446 16.782C106.891 17.0859 106.237 17.2378 105.484 17.2378Z" fill="#1C1917"/>
<path d="M117.881 17.2378C116.732 17.2378 115.734 16.9868 114.889 16.4848C114.043 15.9696 113.39 15.2827 112.927 14.424C112.465 13.5654 112.234 12.6143 112.234 11.5707C112.234 10.4875 112.471 9.52312 112.947 8.67768C113.436 7.83223 114.09 7.16513 114.909 6.67635C115.728 6.18758 116.652 5.9432 117.683 5.9432C118.541 5.9432 119.301 6.0819 119.962 6.35931C120.622 6.62351 121.177 7 121.626 7.48877C122.088 7.97754 122.438 8.54557 122.676 9.19287C122.914 9.82695 123.033 10.5205 123.033 11.2734C123.033 11.4848 123.02 11.6962 122.993 11.9075C122.98 12.1057 122.947 12.2774 122.894 12.4227H114.79V10.2431H121.21L119.803 11.2734C119.935 10.7054 119.928 10.2034 119.783 9.7675C119.638 9.31836 119.38 8.9683 119.01 8.71731C118.654 8.4531 118.211 8.321 117.683 8.321C117.168 8.321 116.725 8.4465 116.355 8.69749C115.985 8.94848 115.708 9.31836 115.523 9.80713C115.338 10.2959 115.265 10.8904 115.305 11.5905C115.252 12.1982 115.325 12.7332 115.523 13.1955C115.721 13.6579 116.025 14.0211 116.434 14.2853C116.844 14.5363 117.339 14.6618 117.921 14.6618C118.449 14.6618 118.898 14.5561 119.268 14.3448C119.651 14.1334 119.948 13.8428 120.16 13.4729L122.537 14.6024C122.326 15.1308 121.989 15.5931 121.527 15.9894C121.078 16.3857 120.543 16.6962 119.922 16.9207C119.301 17.1321 118.621 17.2378 117.881 17.2378Z" fill="#1C1917"/>
<path d="M128.231 17.2378C127.042 17.2378 126.005 16.9604 125.12 16.4055C124.248 15.8375 123.654 15.0779 123.337 14.1268L125.516 13.0964C125.794 13.6777 126.17 14.1334 126.646 14.4637C127.121 14.7939 127.65 14.959 128.231 14.959C128.654 14.959 128.977 14.8732 129.202 14.7015C129.426 14.5297 129.539 14.2919 129.539 13.9881C129.539 13.8296 129.499 13.6975 129.42 13.5918C129.341 13.4729 129.222 13.3672 129.063 13.2748C128.905 13.1823 128.706 13.103 128.469 13.037L126.626 12.5218C125.741 12.2708 125.06 11.8679 124.585 11.3131C124.109 10.745 123.872 10.0779 123.872 9.31176C123.872 8.63804 124.043 8.0502 124.387 7.54822C124.73 7.04623 125.212 6.65654 125.833 6.37913C126.454 6.08851 127.167 5.9432 127.973 5.9432C129.03 5.9432 129.955 6.19419 130.747 6.69617C131.553 7.18494 132.121 7.87847 132.452 8.77675L130.252 9.80713C130.094 9.35799 129.803 9.00132 129.38 8.73712C128.971 8.45971 128.502 8.321 127.973 8.321C127.59 8.321 127.286 8.40026 127.062 8.55878C126.85 8.7173 126.745 8.93527 126.745 9.21268C126.745 9.35799 126.784 9.49009 126.864 9.60898C126.943 9.72787 127.068 9.83355 127.24 9.92602C127.425 10.0185 127.65 10.1044 127.914 10.1836L129.638 10.6988C130.536 10.963 131.223 11.3659 131.699 11.9075C132.174 12.4359 132.412 13.0898 132.412 13.8692C132.412 14.5429 132.234 15.1308 131.877 15.6328C131.533 16.1347 131.051 16.531 130.43 16.8217C129.809 17.0991 129.076 17.2378 128.231 17.2378Z" fill="#1C1917"/>
<path d="M138.607 17.1189C137.299 17.1189 136.282 16.7688 135.555 16.0687C134.842 15.3554 134.485 14.3646 134.485 13.0964V8.75694H132.662V6.18098H132.762C133.316 6.18098 133.739 6.04227 134.03 5.76486C134.334 5.48745 134.485 5.07133 134.485 4.51651V3.72391H137.458V6.18098H139.994V8.75694H137.458V12.8983C137.458 13.2682 137.524 13.5786 137.656 13.8296C137.788 14.0674 137.993 14.2457 138.27 14.3646C138.548 14.4835 138.891 14.5429 139.301 14.5429C139.393 14.5429 139.499 14.5363 139.618 14.5231C139.736 14.5099 139.862 14.4967 139.994 14.4835V17C139.796 17.0264 139.571 17.0528 139.32 17.0793C139.069 17.1057 138.832 17.1189 138.607 17.1189Z" fill="#1C1917"/>
<path d="M7.9919 13.3333H15.6109L11.8014 6.66667H19.4205L22.9684 12.8755C24.7824 16.0501 22.4902 20 18.8339 20H4.76894C1.11264 20 -1.17958 16.0501 0.63445 12.8755L7.9919 0H15.6109L7.9919 13.3333Z" fill="#1C1917"/>
</svg>
