<svg width="140" height="20" viewBox="0 0 140 20" fill="none" xmlns="http://www.w3.org/2000/svg">
<path d="M38.2138 17.2378C37.474 17.2378 36.7871 17.1057 36.153 16.8415C35.5322 16.5641 35.0302 16.1612 34.6471 15.6328L34.9245 15.0185V17H32.1504V2H35.1226V8.24174L34.6669 7.64729C35.0236 7.10568 35.5057 6.68956 36.1134 6.39894C36.7343 6.09511 37.441 5.9432 38.2336 5.9432C39.264 5.9432 40.1953 6.19419 41.0275 6.69617C41.8598 7.19815 42.5203 7.87847 43.009 8.73712C43.4978 9.58256 43.7422 10.5337 43.7422 11.5905C43.7422 12.6341 43.4978 13.5852 43.009 14.4439C42.5335 15.3025 41.8796 15.9828 41.0474 16.4848C40.2151 16.9868 39.2706 17.2378 38.2138 17.2378ZM37.8571 14.5627C38.4119 14.5627 38.9007 14.4373 39.3234 14.1863C39.7462 13.9353 40.0764 13.5852 40.3142 13.1361C40.552 12.6869 40.6709 12.1717 40.6709 11.5905C40.6709 11.0092 40.552 10.5007 40.3142 10.0647C40.0764 9.61559 39.7462 9.26552 39.3234 9.01453C38.9007 8.75033 38.4119 8.61823 37.8571 8.61823C37.3287 8.61823 36.8532 8.74373 36.4304 8.99472C36.0209 9.24571 35.6973 9.59577 35.4595 10.0449C35.2349 10.4941 35.1226 11.0092 35.1226 11.5905C35.1226 12.1717 35.2349 12.6869 35.4595 13.1361C35.6973 13.5852 36.0209 13.9353 36.4304 14.1863C36.8532 14.4373 37.3287 14.5627 37.8571 14.5627Z" fill="#D9F99D"/>
<path d="M49.9017 17.2378C48.7525 17.2378 47.7551 16.9868 46.9097 16.4848C46.0642 15.9696 45.4103 15.2827 44.948 14.424C44.4856 13.5654 44.2544 12.6143 44.2544 11.5707C44.2544 10.4875 44.4922 9.52312 44.9678 8.67768C45.4566 7.83223 46.1105 7.16513 46.9295 6.67635C47.7485 6.18758 48.6732 5.9432 49.7036 5.9432C50.5622 5.9432 51.3218 6.0819 51.9823 6.35931C52.6428 6.62351 53.1976 7 53.6468 7.48877C54.1091 7.97754 54.4592 8.54557 54.697 9.19287C54.9348 9.82695 55.0537 10.5205 55.0537 11.2734C55.0537 11.4848 55.0404 11.6962 55.014 11.9075C55.0008 12.1057 54.9678 12.2774 54.915 12.4227H46.8106V10.2431H53.2307L51.8238 11.2734C51.9559 10.7054 51.9493 10.2034 51.804 9.7675C51.6587 9.31836 51.4011 8.9683 51.0312 8.71731C50.6745 8.4531 50.232 8.321 49.7036 8.321C49.1884 8.321 48.7459 8.4465 48.376 8.69749C48.0061 8.94848 47.7287 9.31836 47.5438 9.80713C47.3588 10.2959 47.2862 10.8904 47.3258 11.5905C47.2729 12.1982 47.3456 12.7332 47.5438 13.1955C47.7419 13.6579 48.0457 14.0211 48.4552 14.2853C48.8648 14.5363 49.3601 14.6618 49.9414 14.6618C50.4698 14.6618 50.9189 14.5561 51.2888 14.3448C51.6719 14.1334 51.9691 13.8428 52.1805 13.4729L54.5583 14.6024C54.3469 15.1308 54.0101 15.5931 53.5477 15.9894C53.0986 16.3857 52.5636 16.6962 51.9427 16.9207C51.3218 17.1321 50.6415 17.2378 49.9017 17.2378Z" fill="#D9F99D"/>
<path d="M61.2226 17.1189C59.9149 17.1189 58.8977 16.7688 58.1711 16.0687C57.4578 15.3554 57.1011 14.3646 57.1011 13.0964V8.75694H55.2781V6.18098H55.3772C55.932 6.18098 56.3547 6.04227 56.6454 5.76486C56.9492 5.48745 57.1011 5.07133 57.1011 4.51651V3.72391H60.0734V6.18098H62.6097V8.75694H60.0734V12.8983C60.0734 13.2682 60.1394 13.5786 60.2715 13.8296C60.4036 14.0674 60.6084 14.2457 60.8858 14.3646C61.1632 14.4835 61.5067 14.5429 61.9162 14.5429C62.0086 14.5429 62.1143 14.5363 62.2332 14.5231C62.3521 14.5099 62.2616 14.4967 62.3937 14.4835V17C62.1956 17.0264 62.187 17.0528 61.936 17.0793C61.685 17.1057 61.4472 17.1189 61.2226 17.1189Z" fill="#D9F99D"/>
<path d="M68.5542 17.1189C67.2464 17.1189 66.2292 16.7688 65.5027 16.0687C64.7894 15.3554 64.4327 14.3646 64.4327 13.0964V8.75694H62.6097V6.18098H62.7088C63.2636 6.18098 63.6863 6.04227 63.9769 5.76486C64.2808 5.48745 64.4327 5.07133 64.4327 4.51651V3.72391H67.4049V6.18098H69.9413V8.75694H67.4049V12.8983C67.4049 13.2682 67.471 13.5786 67.6031 13.8296C67.7352 14.0674 67.94 14.2457 68.2174 14.3646C68.4948 14.4835 68.8382 14.5429 69.2477 14.5429C69.3402 14.5429 69.4459 14.5363 69.5648 14.5231C69.6837 14.5099 69.8092 14.4967 69.9413 14.4835V17C69.7431 17.0264 69.5186 17.0528 69.2676 17.0793C69.0166 17.1057 68.7788 17.1189 68.5542 17.1189Z" fill="#D9F99D"/>
<path d="M76.1017 17.2378C74.9525 17.2378 73.9551 16.9868 73.1097 16.4848C72.2642 15.9696 71.6103 15.2827 71.148 14.424C70.6856 13.5654 70.4544 12.6143 70.4544 11.5707C70.4544 10.4875 70.6922 9.52312 71.1678 8.67768C71.6566 7.83223 72.3105 7.16513 73.1295 6.67635C73.9485 6.18758 74.8732 5.9432 75.9036 5.9432C76.7622 5.9432 77.5218 6.0819 78.1823 6.35931C78.8428 6.62351 79.3976 7 79.8468 7.48877C80.3091 7.97754 80.6592 8.54557 80.897 9.19287C81.1348 9.82695 81.2537 10.5205 81.2537 11.2734C81.2537 11.4848 81.2404 11.6962 81.214 11.9075C81.2008 12.1057 81.1678 12.2774 81.1149 12.4227H73.0106V10.2431H79.4307L78.0238 11.2734C78.1559 10.7054 78.1493 10.2034 78.004 9.7675C77.8587 9.31836 77.6011 8.9683 77.2312 8.71731C76.8745 8.4531 76.432 8.321 75.9036 8.321C75.3884 8.321 74.9459 8.4465 74.576 8.69749C74.2061 8.94848 73.9287 9.31836 73.7437 9.80713C73.5588 10.2959 73.4862 10.8904 73.5258 11.5905C73.4729 12.1982 73.5456 12.7332 73.7437 13.1955C73.9419 13.6579 74.2457 14.0211 74.6552 14.2853C75.0648 14.5363 75.5601 14.6618 76.1414 14.6618C76.6698 14.6618 77.1189 14.5561 77.4888 14.3448C77.8719 14.1334 78.1691 13.8428 78.3805 13.4729L80.7583 14.6024C80.5469 15.1308 80.2101 15.5931 79.7477 15.9894C79.2986 16.3857 78.7636 16.6962 78.1427 16.9207C77.5218 17.1321 76.8415 17.2378 76.1017 17.2378Z" fill="#D9F99D"/>
<path d="M82.2113 17V6.18098H84.9854V8.77675L84.7872 8.40026C85.025 7.48877 85.4147 6.8745 85.9563 6.55746C86.5111 6.22721 87.165 6.06209 87.918 6.06209H88.5521V8.63804H87.6208C86.8942 8.63804 86.3064 8.86262 85.8573 9.31176C85.4081 9.74769 85.1835 10.3686 85.1835 11.1744V17H82.2113Z" fill="#D9F99D"/>
<path d="M97.2458 20V15.0185L97.7214 15.6328C97.3515 16.1612 96.8495 16.5641 96.2154 16.8415C95.5813 17.1057 94.8944 17.2378 94.1547 17.2378C93.0979 17.2378 92.1533 16.9868 91.3211 16.4848C90.4889 15.9828 89.8284 15.3025 89.3396 14.4439C88.864 13.5852 88.6263 12.6341 88.6263 11.5905C88.6263 10.5337 88.8706 9.58256 89.3594 8.73712C89.8482 7.87847 90.5087 7.19815 91.3409 6.69617C92.1731 6.19419 93.1045 5.9432 94.1348 5.9432C94.9274 5.9432 95.6276 6.09511 96.2352 6.39894C96.8561 6.68956 97.3449 7.10568 97.7016 7.64729L97.444 8.24174V6.18098H100.218V20H97.2458ZM94.5113 14.5627C95.0529 14.5627 95.5285 14.4373 95.938 14.1863C96.3475 13.9353 96.6646 13.5852 96.8891 13.1361C97.1269 12.6869 97.2458 12.1717 97.2458 11.5905C97.2458 11.0092 97.1269 10.4941 96.8891 10.0449C96.6646 9.59577 96.3475 9.24571 95.938 8.99472C95.5285 8.74373 95.0529 8.61823 94.5113 8.61823C93.9697 8.61823 93.4809 8.75033 93.045 9.01453C92.6223 9.26552 92.292 9.61559 92.0543 10.0647C91.8165 10.5007 91.6976 11.0092 91.6976 11.5905C91.6976 12.1717 91.8165 12.6869 92.0543 13.1361C92.292 13.5852 92.6223 13.9353 93.045 14.1863C93.4809 14.4373 93.9697 14.5627 94.5113 14.5627Z" fill="#D9F99D"/>
<path d="M105.486 17.2378C104.614 17.2378 103.868 17.0528 103.247 16.683C102.639 16.2999 102.177 15.7715 101.86 15.0978C101.543 14.424 101.384 13.638 101.384 12.7398V6.18098H104.356V12.502C104.356 12.9115 104.436 13.2748 104.594 13.5918C104.766 13.8956 105.004 14.1334 105.308 14.3052C105.611 14.4769 105.955 14.5627 106.338 14.5627C106.734 14.5627 107.078 14.4769 107.368 14.3052C107.672 14.1334 107.903 13.8956 108.062 13.5918C108.234 13.2748 108.319 12.9115 108.319 12.502V6.18098H111.292V17H108.518V14.86L108.676 15.3355C108.425 15.9828 108.016 16.465 107.448 16.782C106.893 17.0859 106.239 17.2378 105.486 17.2378Z" fill="#D9F99D"/>
<path d="M117.883 17.2378C116.734 17.2378 115.736 16.9868 114.891 16.4848C114.045 15.9696 113.391 15.2827 112.929 14.424C112.467 13.5654 112.236 12.6143 112.236 11.5707C112.236 10.4875 112.473 9.52312 112.949 8.67768C113.438 7.83223 114.092 7.16513 114.911 6.67635C115.73 6.18758 116.654 5.9432 117.685 5.9432C118.543 5.9432 119.303 6.0819 119.963 6.35931C120.624 6.62351 121.179 7 121.628 7.48877C122.09 7.97754 122.44 8.54557 122.678 9.19287C122.916 9.82695 123.035 10.5205 123.035 11.2734C123.035 11.4848 123.022 11.6962 122.995 11.9075C122.982 12.1057 122.949 12.2774 122.896 12.4227H114.792V10.2431H121.212L119.805 11.2734C119.937 10.7054 119.93 10.2034 119.785 9.7675C119.64 9.31836 119.382 8.9683 119.012 8.71731C118.656 8.4531 118.213 8.321 117.685 8.321C117.17 8.321 116.727 8.4465 116.357 8.69749C115.987 8.94848 115.71 9.31836 115.525 9.80713C115.34 10.2959 115.267 10.8904 115.307 11.5905C115.254 12.1982 115.327 12.7332 115.525 13.1955C115.723 13.6579 116.027 14.0211 116.436 14.2853C116.846 14.5363 117.341 14.6618 117.923 14.6618C118.451 14.6618 118.9 14.5561 119.27 14.3448C119.653 14.1334 119.95 13.8428 120.162 13.4729L122.539 14.6024C122.328 15.1308 121.991 15.5931 121.529 15.9894C121.08 16.3857 120.545 16.6962 119.924 16.9207C119.303 17.1321 118.623 17.2378 117.883 17.2378Z" fill="#D9F99D"/>
<path d="M128.233 17.2378C127.044 17.2378 126.007 16.9604 125.122 16.4055C124.25 15.8375 123.656 15.0779 123.339 14.1268L125.518 13.0964C125.796 13.6777 126.172 14.1334 126.648 14.4637C127.123 14.7939 127.652 14.959 128.233 14.959C128.656 14.959 128.979 14.8732 129.204 14.7015C129.428 14.5297 129.541 14.2919 129.541 13.9881C129.541 13.8296 129.501 13.6975 129.422 13.5918C129.342 13.4729 129.224 13.3672 129.065 13.2748C128.907 13.1823 128.708 13.103 128.471 13.037L126.628 12.5218C125.743 12.2708 125.062 11.8679 124.587 11.3131C124.111 10.745 123.874 10.0779 123.874 9.31176C123.874 8.63804 124.045 8.0502 124.389 7.54822C124.732 7.04623 125.214 6.65654 125.835 6.37913C126.456 6.08851 127.169 5.9432 127.975 5.9432C129.032 5.9432 129.957 6.19419 130.749 6.69617C131.555 7.18494 132.123 7.87847 132.453 8.77675L130.254 9.80713C130.095 9.35799 129.805 9.00132 129.382 8.73712C128.973 8.45971 128.504 8.321 127.975 8.321C127.592 8.321 127.288 8.40026 127.064 8.55878C126.852 8.7173 126.747 8.93527 126.747 9.21268C126.747 9.35799 126.786 9.49009 126.866 9.60898C126.945 9.72787 127.07 9.83355 127.242 9.92602C127.427 10.0185 127.652 10.1044 127.916 10.1836L129.64 10.6988C130.538 10.963 131.225 11.3659 131.7 11.9075C132.176 12.4359 132.414 13.0898 132.414 13.8692C132.414 14.5429 132.235 15.1308 131.879 15.6328C131.535 16.1347 131.053 16.531 130.432 16.8217C129.811 17.0991 129.078 17.2378 128.233 17.2378Z" fill="#D9F99D"/>
<path d="M138.609 17.1189C137.301 17.1189 136.284 16.7688 135.557 16.0687C134.844 15.3554 134.487 14.3646 134.487 13.0964V8.75694H132.664V6.18098H132.764C133.318 6.18098 133.741 6.04227 134.032 5.76486C134.336 5.48745 134.487 5.07133 134.487 4.51651V3.72391H137.46V6.18098H139.996V8.75694H137.46V12.8983C137.46 13.2682 137.526 13.5786 137.658 13.8296C137.79 14.0674 137.995 14.2457 138.272 14.3646C138.55 14.4835 138.893 14.5429 139.302 14.5429C139.395 14.5429 139.501 14.5363 139.62 14.5231C139.738 14.5099 139.864 14.4967 139.996 14.4835V17C139.798 17.0264 139.573 17.0528 139.322 17.0793C139.071 17.1057 138.834 17.1189 138.609 17.1189Z" fill="#D9F99D"/>
<path d="M7.9919 13.3333H15.6109L11.8014 6.66667H19.4205L22.9684 12.8755C24.7824 16.0501 22.4902 20 18.8339 20H4.76894C1.11264 20 -1.17958 16.0501 0.63445 12.8755L7.9919 0H15.6109L7.9919 13.3333Z" fill="#D9F99D"/>
</svg>
